<?xml version="1.0" encoding="UTF-8" standalone="no"?>
<!DOCTYPE svg PUBLIC "-//W3C//DTD SVG 1.1//EN" "http://www.w3.org/Graphics/SVG/1.1/DTD/svg11.dtd">
<!-- Created with Vectornator (http://vectornator.io/) -->
<svg height="100%" stroke-miterlimit="10" style="fill-rule:nonzero;clip-rule:evenodd;stroke-linecap:round;stroke-linejoin:round;" version="1.1" viewBox="0 0 182.018 188.812" width="100%" xml:space="preserve" xmlns="http://www.w3.org/2000/svg" xmlns:vectornator="http://vectornator.io" xmlns:xlink="http://www.w3.org/1999/xlink">
<defs>
<linearGradient gradientTransform="matrix(-229.439 225.1 -225.1 -229.439 243.316 -55.0897)" gradientUnits="userSpaceOnUse" id="LinearGradient" x1="0" x2="1" y1="0" y2="0">
<stop offset="0" stop-color="#3c8980"/>
<stop offset="1" stop-color="#37ffce"/>
</linearGradient>
<filter color-interpolation-filters="sRGB" filterUnits="userSpaceOnUse" height="193.972" id="Filter" width="194.316" x="-6.14889" y="7.4202">
<feDropShadow dx="-3.67321e-05" dy="10" flood-color="#000000" flood-opacity="0.333" in="SourceGraphic" result="Shadow" stdDeviation="5"/>
</filter>
</defs>
<clipPath id="ArtboardFrame">
<rect height="188.812" width="182.018" x="0" y="0"/>
</clipPath>
<g clip-path="url(#ArtboardFrame)" id="Layer" vectornator:layerName="Layer">
<path d="M162.366 12.9686C160.008 10.5633 156.124 10.4898 153.719 12.8475L91.1865 74.1283L29.7306 11.7678C27.3663 9.36887 23.4846 9.28248 21.0857 11.6465L9.27982 23.2811C6.88115 25.6454 6.91082 29.5279 9.27483 31.9268L70.6733 94.2288L8.19852 155.451C5.79329 157.809 5.71976 161.692 8.07747 164.098L19.6535 175.961C22.0113 178.366 25.8938 178.321 28.299 175.966L90.8323 114.684L152.288 177.045C154.651 179.443 158.535 179.529 160.932 177.166L172.738 165.531C175.138 163.168 175.109 159.284 172.743 156.887L111.346 94.5838L173.82 33.3608C176.225 31.0031 176.298 27.1214 173.94 24.7161L162.366 12.9686Z" fill="url(#LinearGradient)" fill-rule="nonzero" filter="url(#Filter)" stroke="none" vectornator:layerName="Curve 1" vectornator:shadowAngle="1.5708" vectornator:shadowColor="#000000" vectornator:shadowOffset="10" vectornator:shadowOpacity="0.333" vectornator:shadowRadius="10"/>
</g>
</svg>
