<?xml version="1.0" encoding="UTF-8" standalone="no"?>
<!DOCTYPE svg PUBLIC "-//W3C//DTD SVG 1.1//EN" "http://www.w3.org/Graphics/SVG/1.1/DTD/svg11.dtd">
<!-- Created with Vectornator (http://vectornator.io/) -->
<svg height="100%" stroke-miterlimit="10" style="fill-rule:nonzero;clip-rule:evenodd;stroke-linecap:round;stroke-linejoin:round;" version="1.1" viewBox="0 0 182.018 188.812" width="100%" xml:space="preserve" xmlns="http://www.w3.org/2000/svg" xmlns:vectornator="http://vectornator.io" xmlns:xlink="http://www.w3.org/1999/xlink">
<defs>
<linearGradient gradientTransform="matrix(146.299 -5.22911 5.22911 146.299 -448.977 89.9102)" gradientUnits="userSpaceOnUse" id="LinearGradient" x1="0" x2="1" y1="0" y2="0">
<stop offset="0" stop-color="#13f0d8"/>
<stop offset="1" stop-color="#37ffce"/>
</linearGradient>
<filter color-interpolation-filters="sRGB" filterUnits="userSpaceOnUse" height="185.819" id="Filter" width="185.722" x="-462.477" y="7.00165">
<feDropShadow dx="-3.67321e-05" dy="10" flood-color="#000000" flood-opacity="0.333" in="SourceGraphic" result="Shadow" stdDeviation="5"/>
</filter>
<linearGradient gradientTransform="matrix(134.126 133.824 -133.824 134.126 26.2991 25.1008)" gradientUnits="userSpaceOnUse" id="LinearGradient_2" x1="0" x2="1" y1="0" y2="0">
<stop offset="0" stop-color="#13f0d8"/>
<stop offset="1" stop-color="#37ffce"/>
</linearGradient>
<filter color-interpolation-filters="sRGB" filterUnits="userSpaceOnUse" height="190.022" id="Filter_2" width="190.259" x="-1.76722" y="7.00165">
<feDropShadow dx="-3.67321e-05" dy="10" flood-color="#000000" flood-opacity="0.333" in="SourceGraphic" result="Shadow" stdDeviation="5"/>
</filter>
<linearGradient gradientTransform="matrix(-133.377 134.57 -134.57 -133.377 160.051 24.7277)" gradientUnits="userSpaceOnUse" id="LinearGradient_3" x1="0" x2="1" y1="0" y2="0">
<stop offset="0" stop-color="#13f0d8"/>
<stop offset="1" stop-color="#37ffce"/>
</linearGradient>
<filter color-interpolation-filters="sRGB" filterUnits="userSpaceOnUse" height="190.605" id="Filter_3" width="189.672" x="-1.47411" y="6.71005">
<feDropShadow dx="-3.67321e-05" dy="10" flood-color="#000000" flood-opacity="0.333" in="SourceGraphic" result="Shadow" stdDeviation="5"/>
</filter>
</defs>
<clipPath id="ArtboardFrame">
<rect height="188.812" width="182.018" x="0" y="0"/>
</clipPath>
<g clip-path="url(#ArtboardFrame)" id="Layer" vectornator:layerName="Layer">
<path d="M-369.615 10.5017C-413.466 10.5017-448.977 46.0129-448.977 89.8629C-448.977 133.713-413.466 169.318-369.615 169.32C-325.765 169.32-290.254 133.713-290.254 89.8629C-290.254 46.0129-325.765 10.5017-369.615 10.5017ZM-369.615 46.1621C-345.457 46.1621-325.913 65.7044-325.913 89.8629C-325.913 114.022-345.457 133.658-369.615 133.658C-393.774 133.658-413.316 114.022-413.316 89.8629C-413.316 65.7044-393.774 46.1621-369.615 46.1621Z" fill="url(#LinearGradient)" fill-rule="nonzero" filter="url(#Filter)" stroke="#000000" stroke-linecap="butt" stroke-linejoin="round" stroke-width="2" vectornator:layerName="Curve 1" vectornator:shadowAngle="1.5708" vectornator:shadowColor="#000000" vectornator:shadowOffset="10" vectornator:shadowOpacity="0.333" vectornator:shadowRadius="10"/>
<path d="M38.3113 13.0615C39.7219 11.6477 42.0114 11.6451 43.4252 13.0557L172.432 141.771C173.845 143.182 173.848 145.472 172.437 146.885L148.413 170.964C147.002 172.378 144.713 172.38 143.299 170.97L14.2926 42.254C12.8789 40.8435 12.8763 38.5539 14.2869 37.1402L38.3113 13.0615Z" fill="url(#LinearGradient_2)" fill-rule="nonzero" filter="url(#Filter_2)" stroke="#000000" stroke-linecap="butt" stroke-linejoin="round" stroke-width="2" vectornator:layerName="Rectangle 1" vectornator:shadowAngle="1.5708" vectornator:shadowColor="#000000" vectornator:shadowOffset="10" vectornator:shadowOpacity="0.333" vectornator:shadowRadius="10"/>
<path d="M172.13 36.6999C173.548 38.1057 173.559 40.3953 172.153 41.8137L43.8664 171.247C42.4606 172.666 40.1711 172.676 38.7526 171.27L14.5942 147.326C13.1758 145.92 13.1656 143.63 14.5714 142.212L142.858 12.7783C144.264 11.3599 146.553 11.3497 147.972 12.7556L172.13 36.6999Z" fill="url(#LinearGradient_3)" fill-rule="nonzero" filter="url(#Filter_3)" stroke="#000000" stroke-linecap="butt" stroke-linejoin="round" stroke-width="2" vectornator:layerName="Rectangle 2" vectornator:shadowAngle="1.5708" vectornator:shadowColor="#000000" vectornator:shadowOffset="10" vectornator:shadowOpacity="0.333" vectornator:shadowRadius="10"/>
</g>
<g id="Layer-1" vectornator:layerName="Layer 1"/>
</svg>
